<svg t="1629809283464" class="icon" viewBox="0 0 1025 1024" version="1.1" xmlns="http://www.w3.org/2000/svg" p-id="3008" width="128" height="128"><path d="M234.057486 3.407963h561.31997c126.821638 0 229.629533 102.808896 229.629533 229.630534v561.31997c0 126.820638-102.808896 229.630533-229.629533 229.630533H234.057486C107.234848 1023.989 4.426952 921.178105 4.426952 794.358467V233.038497c0-126.821638 102.808896-229.630533 229.630534-229.630534z" fill="#00A0E9" p-id="3009"></path><path d="M343.288312 612.023426c-6.989925 0-16.038828 2.80997-27.177708 8.36691-20.905775 11.18288-40.439566 16.052828-58.538371 14.645842-62.716326-2.77797-96.165967-41.839551-100.346922-117.154741 2.77597-76.687176 36.224611-117.153742 100.346922-121.338697 25.087731 1.405985 43.902528 5.58894 56.447394 12.550865 11.13988 2.81097 20.187783 4.184955 27.177708 4.184955 19.501791 0 29.953678-11.833873 31.359663-35.564617-2.80997-34.846626-41.125558-54.393416-114.984765-58.577371-114.295772 9.773895-175.609114 75.314191-183.972024 196.652887 6.958925 122.744681 68.270267 186.907992 183.972024 192.469933 78.039162-1.405985 118.446728-20.921775 121.255698-58.579371-4.180955-23.699745-16.039828-36.252611-35.539619-37.657595z m206.967777-140.168495c-40.439566-12.550865-60.626349-26.476716-60.626349-41.84055 0-20.919775 14.634843-32.065656 43.901529-33.471641 16.72482 1.405985 30.639671 4.901947 41.811551 10.459888 12.542865 2.80997 22.277761 4.183955 29.269685 4.183955 20.905775 0 32.731648-13.239858 35.539618-39.749573-2.80797-30.661671-37.629596-48.116483-104.528877-52.300438-83.624102 6.993925-127.52663 47.429491-131.708585 121.338696 0 48.835475 36.913603 83.681101 110.80281 104.600877 44.587521 12.554865 66.899281 27.197708 66.899281 43.936528-1.404985 30.69067-19.53379 46.024506-54.355416 46.024505-13.94685 0-32.077655-3.463963-54.355416-10.463887-12.543865-5.55594-24.400738-9.052903-35.539618-10.459888-22.31176 2.81197-34.168633 15.367835-35.540618 37.658596 1.371985 36.28361 44.589521 55.081408 129.617607 56.487393 86.401072-4.183955 132.393578-43.938528 137.980518-119.246719-0.003-55.766401-39.724573-94.830981-119.16772-117.156742z m286.414923 0c-40.440566-12.550865-60.629349-26.476716-60.629348-41.84055 0-20.919775 14.635843-32.065656 43.903528-33.471641 16.72582 1.405985 30.638671 4.901947 41.811551 10.459888 12.543865 2.80997 22.276761 4.183955 29.269685 4.183955 20.903775 0 32.729648-13.239858 35.537619-39.749573-2.80797-30.661671-37.629596-48.116483-104.528877-52.300438-83.625102 6.993925-127.52563 47.429491-131.706586 121.338696 0 48.835475 36.910603 83.681101 110.79981 104.600877 44.587521 12.554865 66.899281 27.197708 66.899281 43.936528-1.404985 30.69067-19.53379 46.024506-54.355416 46.024505-13.94685 0-32.077655-3.463963-54.355416-10.463887-12.543865-5.55594-24.401738-9.052903-35.539618-10.459888-22.31176 2.81197-34.168633 15.367835-35.540618 37.658596 1.372985 36.28361 44.589521 55.081408 129.618607 56.487393 86.399072-4.183955 132.391578-43.938528 137.978518-119.246719 0-55.766401-39.721573-94.830981-119.16272-117.156742z" fill="#FFFFFF" p-id="3010"></path></svg>