<svg t="1629809619250" class="icon" viewBox="0 0 1024 1024" version="1.1" xmlns="http://www.w3.org/2000/svg" p-id="18068" width="128" height="128"><path d="M286.912 94.592a8.96 8.96 0 0 1 8.96 8.896v47.936H396.16v-48a8.96 8.96 0 0 1 8.96-8.832h53.44a8.96 8.96 0 0 1 8.96 8.896v47.936h99.2v-48a8.96 8.96 0 0 1 8.96-8.832h53.44a8.96 8.96 0 0 1 8.96 8.896v47.936h100.288v-48a8.96 8.96 0 0 1 8.96-8.832h53.44a8.96 8.96 0 0 1 8.96 8.896v47.936h102.208c19.712 0 35.712 16 35.712 35.648v659.84c0 19.712-16 35.712-35.712 35.712h-102.208v39.04a8.96 8.96 0 0 1-8.96 8.832h-53.504a8.96 8.96 0 0 1-8.96-8.896v-39.04H638.08v39.04a8.96 8.96 0 0 1-8.896 8.96h-53.504a8.96 8.96 0 0 1-8.96-8.96v-39.04h-99.2v39.04a8.96 8.96 0 0 1-8.896 8.96H405.12a8.96 8.96 0 0 1-8.896-8.96v-39.04H295.872v39.04a8.96 8.96 0 0 1-8.96 8.96h-53.504a8.96 8.96 0 0 1-8.896-8.96v-39.04H113.216a35.648 35.648 0 0 1-35.648-35.648V187.072c0-19.712 16-35.648 35.648-35.648h111.296v-48a8.96 8.96 0 0 1 8.96-8.832h53.44zM361.6 356.032H273.6L175.488 672.64H257.92l12.672-52.224h91.904l12.8 52.224h84.48L361.6 356.032z m257.728 0H485.248v316.544h81.024V555.136h44.16c32.576 0 56.768-8.96 72.576-27.008 15.872-17.984 23.808-42.944 23.808-74.88 0-31.104-7.296-55.104-21.824-71.936-14.528-16.832-36.48-25.28-65.664-25.28z m213.76 0h-80.832v316.544h80.832V356.032zM316.8 438.08l28.8 113.792h-57.472l28.672-113.792z m272.512-17.664c15.104 0 25.344 3.456 30.848 10.368 5.44 6.848 8.192 15.296 8.192 25.216 0 10.24-3.2 18.624-9.472 25.152-6.272 6.592-17.216 9.856-32.768 9.856h-19.776V420.416z" fill="#d4237a" p-id="18069"></path></svg>