<svg t="1629809167888" class="icon" viewBox="0 0 1024 1024" version="1.1" xmlns="http://www.w3.org/2000/svg" p-id="2002" width="128" height="128"><path d="M81.43628 366.530495h38.993726v475.731358H11.242307V467.924715z m928.042785 101.36789v374.363468h-109.187699V374.337139h-38.980562v-7.806644H939.350916v7.806644z" fill="#B23A0B" p-id="2003"></path><path d="M900.291366 842.261853v62.361a100.169906 100.169906 0 0 1-77.987452 77.987452h-616.10614c-38.993726-7.806644-77.987452-38.993726-77.987453-85.780931v-54.567521z" fill="#606060" p-id="2004"></path><path d="M861.310804 366.530495v522.518564q-11.716548 35.096987-46.80037 46.80037H206.210938c-23.393603-7.806644-46.80037-23.406767-46.80037-46.80037V124.774658c0-23.393603 31.200247-46.787206 54.59385-46.787206h343.150056V0H213.978088C151.590759 0 81.409951 46.787206 81.409951 124.774658v772.081045c0 62.387329 54.59385 109.174535 109.174534 124.774658h647.319552c54.59385-15.600123 93.587576-54.59385 101.367891-101.367891V374.337139h-77.961124z" fill="#949BA8" p-id="2005"></path><path d="M923.684969 226.168878L689.735776 7.806644s-7.806644 0-7.806644-7.806644h-46.787205v210.634578c0 15.600123 15.600123 38.980562 23.393602 46.787205q23.406767 23.406767 46.787206 23.393603H931.452119v-31.26607c0-7.793479 0-15.586959-7.806644-23.380438z" fill="#FDC6A8" p-id="2006"></path><path d="M11.242307 467.924715h998.236758V943.642909H11.242307z" fill="#FC6F30" p-id="2007"></path><path d="M276.391747 818.868251l46.853028-31.200247c15.600123 23.393603 31.200247 31.200247 46.787206 31.200247 31.200247 0 38.993726-15.600123 38.993726-62.400494V545.912167h62.400494v218.362234c0 62.387329-31.200247 109.174535-101.367891 109.174535-46.787206 0-77.987452-15.586959-93.587575-54.580685zM525.980557 826.66173l38.993726-46.787206c23.406767 23.393603 54.59385 38.993726 77.987452 38.993727 31.200247 0 46.80037-15.600123 46.800371-38.993727s-15.600123-31.200247-46.800371-38.993726l-38.993726-15.600123c-31.187082-15.600123-62.387329-38.993726-62.387329-85.794097 0-54.580685 46.80037-93.574411 109.187699-93.574411 38.993726 0 70.180808 15.600123 101.367891 38.993726l-31.200247 38.993726c-23.406767-15.600123-39.006891-23.380438-70.193973-23.380438s-46.80037 15.600123-46.80037 31.200247c0 23.393603 23.406767 31.200247 46.80037 38.993726l38.993726 15.600124c38.980562 15.573794 62.387329 38.967397 62.387329 85.754602 0 54.59385-46.80037 93.587576-116.981178 93.587576-38.993726 7.793479-77.987452-7.793479-109.1877-38.993726z" fill="#FFFFFF" p-id="2008"></path></svg>