<svg t="1629808777968" class="icon" viewBox="0 0 1284 1024" version="1.1" xmlns="http://www.w3.org/2000/svg" p-id="7623" width="128" height="128"><path d="M786.785251 0H273.2172c-32.61546 0-58.707828 26.4687-58.707828 58.707828v906.584344c0 32.490016 26.4687 58.707828 58.707828 58.707828h736.983952c32.490016 0 58.707828-26.092368 58.707828-58.707828V290.653926L786.785251 0zM657.076075 757.807669c-14.300625 8.279309-31.862796 8.279309-46.037976 0-14.300625-8.279309-23.08171-23.458042-23.08171-39.891217 0-16.433174 8.781085-31.611907 23.08171-39.891216 14.300625-8.279309 31.862796-8.279309 46.037976 0 14.300625 8.279309 23.08171 23.458042 23.08171 39.891216-0.125444 16.433174-8.906529 31.611907-23.08171 39.891217z m58.582384-190.298665l-0.250888-0.250888c-20.823717 10.286414-49.424966 39.891216-49.424967 69.24513h-55.822614c0-57.829719 48.546858-103.365919 80.033321-119.171873 29.604802-19.945608 38.385888-33.869901 38.385888-59.460492 0-52.059292-42.400098-94.45939-94.45939-94.45939s-94.45939 42.400098-94.45939 94.45939h-55.822614c0-82.918535 67.488913-150.282004 150.282004-150.282004 82.918535 0 150.282004 67.488913 150.282004 150.282004-0.125444 60.087713-35.500674 88.061742-68.743354 109.638123z" fill="#3F84C9" p-id="7624"></path><path d="M785.656254 0c-0.752664 1.881661-1.128997 3.763322-1.128997 6.021316v226.802891c0 32.113684 26.092368 58.707828 58.707828 58.707828H1068.783535v-0.501777L786.785251 0h-1.128997z m0 0" fill="#87BCE8" p-id="7625"></path></svg>